<svg width="784" height="869" viewBox="0 0 784 869" fill="none" xmlns="http://www.w3.org/2000/svg">
<g clip-path="url(#clip0_2_2)">
<path d="M533.24 538.196C960.679 824.193 821.76 930.762 266.62 833.7C121.57 808.34 0 701.399 0 538.196C0 374.994 119.37 242.692 266.62 242.692C413.87 242.692 397.6 447.44 533.24 538.196Z" fill="black" fill-opacity="0.12"/>
<path opacity="0.1" d="M571.456 816.814C664.715 816.814 740.316 810.05 740.316 801.706C740.316 793.362 664.715 786.597 571.456 786.597C478.198 786.597 402.597 793.362 402.597 801.706C402.597 810.05 478.198 816.814 571.456 816.814Z" fill="black"/>
<path opacity="0.1" d="M238.428 318.814C287.857 318.814 327.928 312.05 327.928 303.706C327.928 295.362 287.857 288.598 238.428 288.598C188.998 288.598 148.928 295.362 148.928 303.706C148.928 312.05 188.998 318.814 238.428 318.814Z" fill="black"/>
<path opacity="0.1" d="M233.737 340.899C195.335 340.891 157.715 351.748 125.221 372.214C92.7277 392.68 66.6869 421.921 50.1068 456.559C69.1657 435.504 92.43 418.681 118.396 407.178C144.363 395.675 172.454 389.748 200.854 389.779C313.252 389.779 404.374 480.901 404.374 593.3C404.42 623.708 397.622 653.736 384.484 681.16C418.509 643.754 437.33 594.985 437.257 544.419C437.257 432.021 346.135 340.899 233.737 340.899Z" fill="black"/>
<path opacity="0.3" d="M404.374 592.411C404.42 622.819 397.622 652.848 384.484 680.271C365.425 701.326 342.161 718.149 316.195 729.652C290.228 741.155 262.137 747.082 233.737 747.051C121.339 747.051 30.2169 655.929 30.2169 543.53C30.171 513.122 36.9689 483.094 50.1068 455.67C69.1657 434.615 92.43 417.792 118.396 406.289C144.363 394.786 172.454 388.859 200.854 388.891C313.252 388.891 404.374 480.013 404.374 592.411Z" fill="#B81200"/>
<path d="M233.737 748.05C120.964 748.05 29.2168 656.303 29.2168 543.531C29.1349 512.969 35.9682 482.784 49.2051 455.238C65.8668 420.43 92.0356 391.045 124.689 370.479C157.342 349.912 195.147 339.003 233.737 339.01C346.51 339.01 438.257 430.758 438.257 543.531C438.259 570.389 432.97 596.985 422.693 621.799C412.415 646.613 397.35 669.16 378.359 688.152C359.367 707.144 336.82 722.208 312.006 732.486C287.191 742.763 260.596 748.052 233.737 748.05ZM233.737 341.01C156.248 341.01 84.5225 386.187 51.0088 456.103C37.9014 483.38 31.1352 513.268 31.2168 543.531C31.2168 655.201 122.067 746.05 233.737 746.05C260.333 746.052 286.669 740.815 311.24 730.638C335.812 720.461 358.139 705.544 376.945 686.738C395.751 667.932 410.668 645.606 420.845 621.034C431.022 596.462 436.259 570.127 436.257 543.531C436.257 431.86 345.407 341.01 233.737 341.01Z" fill="white"/>
<path d="M699.356 750.635C684.574 769.966 686.264 796.093 686.264 796.093C686.264 796.093 711.92 790.876 726.702 771.544C741.484 752.213 739.793 726.086 739.793 726.086C739.793 726.086 714.137 731.303 699.356 750.635Z" fill="#0B4200"/>
<path d="M709.042 754.976C706.174 779.142 686.756 796.703 686.756 796.703C686.756 796.703 671.99 775.084 674.858 750.919C677.727 726.753 697.144 709.191 697.144 709.191C697.144 709.191 711.911 730.811 709.042 754.976Z" fill="#1D690E"/>
<path d="M172.828 188.89C219.208 188.89 256.807 151.291 256.807 104.911C256.807 58.5301 219.208 20.9314 172.828 20.9314C126.448 20.9314 88.8488 58.5301 88.8488 104.911C88.8488 151.291 126.448 188.89 172.828 188.89Z" fill="#DE8F00"/>
<path d="M354.901 190.533C354.942 274.417 305.088 303.727 243.578 303.756C242.149 303.757 240.727 303.742 239.312 303.711C236.461 303.651 233.64 303.522 230.849 303.325C175.332 299.421 132.182 268.653 132.144 190.641C132.105 109.908 235.238 7.97471 242.972 0.4377C242.979 0.4377 242.979 0.437699 242.986 0.430849C243.28 0.143599 243.43 0 243.43 0C243.43 0 354.861 106.655 354.901 190.533Z" fill="#0B4200"/>
<path d="M239.518 290.927L280.226 233.991L239.418 297.175L239.312 303.711C236.461 303.651 233.64 303.522 230.849 303.325L235.197 219.405L235.163 218.755L235.238 218.632L235.651 210.702L194.679 147.4L235.771 204.762L235.874 206.443L239.159 143.038L204.079 77.6211L239.584 131.895L242.972 0.437724L242.986 0.000244141L242.986 0.430873L242.462 104.099L277.326 62.9839L242.316 113.027L241.421 169.8L273.982 115.301L241.295 178.147L240.798 209.715L288.052 133.854L240.619 220.728L239.518 290.927Z" fill="#1D690E"/>
<path d="M575.432 240.43C564.757 222.394 540.604 217.07 540.604 217.07C540.604 217.07 515.484 217.232 502.282 244.702C499.346 280.719 500.184 303.746 509.466 299.34L509.466 294.582L511.856 299.34C515.636 299.612 519.429 299.677 523.217 299.535C551.653 298.617 581.643 300.291 580.771 290.087C572.495 277.272 585.703 257.785 575.432 240.43Z" fill="#432E2C"/>
<path d="M525.862 407.843L528.608 435.301L592.22 428.437L593.593 407.843H525.862Z" fill="#FFB4B4"/>
<path d="M518.998 422.945L517.167 438.962C517.167 438.962 496.116 468.251 497.946 518.592C499.777 568.933 469.115 792.72 491.082 794.55C513.048 796.381 552.406 799.127 554.236 792.262C556.067 785.398 559.728 524.999 559.728 524.999C559.728 524.999 569.338 792.587 585.813 793.502C602.289 794.418 657.663 796.248 657.663 789.384C657.663 782.519 609.153 476.031 609.153 476.031L601.373 450.403L593.593 418.826C593.593 418.826 545.083 427.064 531.812 423.86C518.54 420.657 518.998 422.945 518.998 422.945Z" fill="#2F2E41"/>
<path d="M540.964 296.178C557.14 296.178 570.253 283.065 570.253 266.889C570.253 250.713 557.14 237.6 540.964 237.6C524.788 237.6 511.675 250.713 511.675 266.889C511.675 283.065 524.788 296.178 540.964 296.178Z" fill="#FFB4B4"/>
<path d="M592.22 315.399L586.66 323.49L583.1 328.666L577.118 337.366L547.371 339.654C547.371 339.654 540.145 337.32 531.807 333.911C528.727 332.647 525.491 331.238 522.416 329.741C510.485 323.948 500.912 316.877 511.675 312.195C513.587 311.375 515.423 310.389 517.162 309.248C518.745 308.214 520.219 307.021 521.56 305.688C524.318 302.925 526.359 299.531 527.508 295.8C528.656 292.069 528.877 288.115 528.15 284.279L556.982 280.161C556.144 287.474 563.416 295.45 571.567 301.963C574.244 304.109 577.022 306.091 579.635 307.839C586.486 312.424 592.22 315.399 592.22 315.399Z" fill="#FFB4B4"/>
<path d="M552.863 324.094C552.863 324.094 524.718 319.289 518.311 309.221C518.311 309.221 490.624 312.653 492.912 327.298C495.2 341.942 518.082 422.03 518.082 422.03C518.082 422.03 575.288 411.046 596.339 419.284L609.153 317.23C609.153 317.23 604.577 307.161 595.881 309.907C587.186 312.653 583.754 310.136 583.754 310.136C583.754 310.136 573.915 324.094 552.863 324.094Z" fill="black"/>
<path d="M578.491 484.727C578.491 484.727 598.17 506.693 587.186 510.355C576.203 514.016 562.931 495.71 562.931 495.71L578.491 484.727Z" fill="#FFB4B4"/>
<path d="M584.898 486.557C584.898 486.557 568.881 497.541 574.83 504.863C580.779 512.185 601.373 498.456 601.373 495.71C601.373 492.964 584.898 486.557 584.898 486.557Z" fill="#FFB4B4"/>
<path d="M545.541 427.064L532.269 429.352L523.574 364.824C524.076 353.118 523.689 341.39 522.416 329.742C521.446 321.962 519.826 314.484 517.162 309.248C518.745 308.214 520.219 307.021 521.56 305.688C524.746 310.736 530.558 321.426 531.807 333.911C532.134 337.037 532.135 340.189 531.812 343.315C529.523 364.824 529.981 368.943 529.981 368.943L545.541 427.064Z" fill="#2F2E41"/>
<path d="M514.879 313.111C514.879 313.111 493.37 307.161 491.539 319.975C489.709 332.789 491.997 365.74 497.031 378.096C502.065 390.452 519.455 430.725 519.455 430.725C519.455 430.725 551.033 470.997 552.406 480.608C553.778 490.218 560.643 500.286 560.643 500.286L582.61 486.1L539.591 413.334L520.828 362.994C520.828 362.994 528.608 317.23 514.879 313.111Z" fill="black"/>
<path d="M599.085 314.941L609.153 317.23C609.153 317.23 618.306 356.587 614.645 377.638C610.984 398.69 610.526 406.012 610.526 406.012L607.323 465.963C607.323 465.963 608.238 504.405 601.831 498.456C591.305 493.937 582.61 489.761 582.61 489.761C582.61 489.761 583.983 472.828 589.017 468.709C589.017 468.709 594.966 437.132 591.305 423.403C587.644 409.673 599.085 314.941 599.085 314.941Z" fill="black"/>
<path d="M602.746 359.333L591.076 426.835L583.983 423.86L596.339 359.333L583.1 328.666L571.567 301.963C574.244 304.109 577.022 306.091 579.635 307.839L586.66 323.49L602.746 359.333Z" fill="#2F2E41"/>
<path d="M568.236 236.855L548.468 221.942L518.559 230.397L512.598 256.726L520.97 250.241L531.583 246.482L537.789 244.101L533.251 250.241L542.404 240.332L557.545 248.906L569.23 256.229L568.236 236.855Z" fill="#432E2C"/>
<path d="M527.019 801.706C534.873 801.706 541.239 799.319 541.239 796.374C541.239 793.429 534.873 791.041 527.019 791.041C519.166 791.041 512.8 793.429 512.8 796.374C512.8 799.319 519.166 801.706 527.019 801.706Z" fill="#2F2E41"/>
<path d="M623.003 801.706C630.856 801.706 637.222 799.319 637.222 796.374C637.222 793.429 630.856 791.041 623.003 791.041C615.149 791.041 608.783 793.429 608.783 796.374C608.783 799.319 615.149 801.706 623.003 801.706Z" fill="#2F2E41"/>
<path d="M263.546 648.795C249 658.26 232.238 663.769 214.913 664.778C197.589 665.788 180.3 662.262 164.754 654.549L166.955 650.059C185.694 659.265 206.933 662.076 227.422 658.063C247.91 654.049 266.519 643.433 280.399 627.838C294.28 612.242 302.668 592.528 304.279 571.713C305.89 550.897 300.635 530.127 289.319 512.582C278.003 495.037 261.249 481.683 241.622 474.566C221.996 467.448 200.577 466.958 180.645 473.17C160.713 479.383 143.366 491.956 131.259 508.966C119.153 525.975 112.954 546.483 113.611 567.35L108.613 567.503C108.059 549.946 112.117 532.549 120.382 517.048C128.648 501.548 140.831 488.484 155.719 479.159C170.606 469.835 187.678 464.575 205.231 463.905C222.785 463.234 240.208 467.176 255.764 475.338C271.319 483.5 284.464 495.596 293.887 510.421C303.311 525.246 308.684 542.282 309.471 559.831C310.258 577.38 306.432 594.829 298.374 610.439C290.316 626.048 278.308 639.273 263.546 648.795Z" fill="white"/>
<path d="M218.318 558.375C203.532 561.648 183.855 563.642 169.517 561.56L187.516 575.266L137.127 607.765L139.837 611.967L190.226 579.468L195.292 601.522C199.308 587.602 209.241 570.499 218.318 558.375Z" fill="white"/>
</g>
<defs>
<clipPath id="clip0_2_2">
<rect width="783.928" height="868.734" fill="white"/>
</clipPath>
</defs>
</svg>
