<svg width="36" height="33" viewBox="0 0 36 33" fill="none" xmlns="http://www.w3.org/2000/svg">
<path d="M34.5161 11.5042V12.9259C34.5161 14.2247 33.7463 15.4186 32.5117 16.0343L21.5391 21.507M1.48389 11.5042V12.9259C1.48389 14.2247 2.25376 15.4186 3.48831 16.0343L14.4609 21.507M29.4343 25.4448L21.5391 21.507M21.5391 21.507L19.807 20.6431C18.6789 20.0805 17.3211 20.0805 16.193 20.6431L14.4609 21.507M14.4609 21.507L6.56577 25.4448M34.5161 27.9794C34.5161 29.9292 32.8097 31.5099 30.7047 31.5099H5.2953C3.19032 31.5099 1.48389 29.9292 1.48389 27.9794L1.48389 11.2593C1.48389 9.96049 2.25376 8.76659 3.48831 8.15084L16.193 1.8142C17.3211 1.25155 18.6789 1.25155 19.807 1.8142L32.5117 8.15084C33.7463 8.76659 34.5161 9.96049 34.5161 11.2593V27.9794Z" stroke="#0F172A" stroke-width="1.5" stroke-linecap="round" stroke-linejoin="round"/>
</svg>
