<svg width="146" height="52" viewBox="0 0 146 52" fill="none" xmlns="http://www.w3.org/2000/svg">
<path d="M7.97119 21.4558C7.97119 22.1225 7.97119 23.4659 8.8045 28.7142C9.48339 32.99 11.3044 40.429 12.1963 44.4087C13.0882 48.3884 13.1549 48.6551 13.1892 48.6258C13.2236 48.5965 13.2236 48.2631 13.2236 47.9197" stroke="#0B0B0B" stroke-width="3" stroke-linecap="round"/>
<path d="M2.11279 23.8799C2.51278 23.7466 2.91277 23.6132 4.65212 22.9112C6.39146 22.2092 9.45804 20.9426 11.5045 20.0234C13.5509 19.1043 14.4842 18.571 15.8498 18.0215" stroke="#0B0B0B" stroke-width="3" stroke-linecap="round"/>
<path d="M9.38525 50.1418C9.78524 49.9418 10.1852 49.7418 13.6912 48.6055C17.1972 47.4691 23.797 45.4025 27.4635 44.3046C31.1301 43.2066 31.6634 43.14 32.2129 43.0713" stroke="#0B0B0B" stroke-width="3" stroke-linecap="round"/>
<path d="M20.8999 34.3848C22.2332 37.3181 22.92 39.5624 22.92 40.5735C22.92 41.1832 22.3827 38.0978 22.3807 34.5999C22.3802 33.8465 22.5807 33.5161 22.716 33.2444C22.8514 32.9727 22.9847 32.7727 23.3867 32.6697C23.7887 32.5667 24.4554 32.5667 24.8654 32.6667C26.0488 32.9552 26.3503 34.9181 26.8573 35.8625C27.2088 36.5173 27.833 37.1423 28.6371 37.6473C29.7788 38.3645 31.2653 37.6857 32.0723 37.417C32.6127 37.1484 33.0188 36.6777 33.3884 36.0393C33.5581 35.7343 33.6915 35.4676 33.8288 34.7888" stroke="#0B0B0B" stroke-width="3" stroke-linecap="round"/>
<path d="M34.4351 15.3953C34.7704 16.6659 35.0411 20.1588 35.3764 23.3587C36.0621 29.9015 36.3825 32.0857 36.8916 33.2029C37.1217 33.7078 37.7299 34.2473 38.537 34.6846C40.4432 35.7176 43.7257 34.7907 44.0954 34.3877C44.3984 33.9846 44.6025 33.5119 44.7035 32.8746C44.7378 32.5039 44.7378 32.0372 44.7378 31.5564" stroke="#0B0B0B" stroke-width="3" stroke-linecap="round"/>
<path d="M32.415 23.8799C32.6817 23.8799 32.9484 23.8799 35.0857 23.8465C37.223 23.8132 41.2229 23.7465 43.3834 23.6789C45.544 23.6112 45.744 23.5445 46.354 23.4758" stroke="#0B0B0B" stroke-width="3" stroke-linecap="round"/>
<path d="M45.5459 23.2739C47.7479 23.2739 52.0083 23.1406 52.378 22.8386C53.1564 22.2027 53.5578 21.1245 53.9618 19.9791C54.0764 19.6544 54.0305 19.2417 53.9305 18.9357C53.8305 18.6296 53.6305 18.4296 52.9608 18.3266C52.2912 18.2236 51.1579 18.2236 50.5407 18.3902C49.2236 18.7459 48.7822 20.171 48.4084 21.1154C47.985 22.1855 47.9054 23.4679 47.8014 28.7081C47.7629 30.6461 48.9761 31.8192 49.7852 32.5313C50.1131 32.8199 51.5942 32.7686 53.5457 32.6686C55.2839 32.5796 56.1799 30.9545 57.091 30.5141C58.0688 30.0091 58.6082 29.5384 58.8102 29.1354C58.8789 28.9324 58.8789 28.7324 59.0809 28.3243" stroke="#0B0B0B" stroke-width="3" stroke-linecap="round"/>
<path d="M57.667 30.7486C58.1377 29.6072 58.273 27.8638 58.7761 26.3426C59.1333 25.2622 59.2831 22.0215 59.3831 18.2479C59.4126 17.1367 59.6831 17.6742 59.7861 18.1822C60.1432 19.9433 60.0912 21.7145 60.8285 24.0063C61.4055 25.7998 61.5699 27.9729 61.7739 30.0354C61.8113 30.4132 61.9739 30.6758 62.0426 30.9132C62.1657 31.3385 62.3113 28.3567 62.6477 23.3417C62.8287 20.6422 63.186 19.8438 63.3901 18.1964C63.5281 17.0822 64.0628 16.4075 64.3315 16.0045C66.4041 15.3955 69.9879 15.5954 70.3575 16.0318C70.5272 16.2682 70.6606 16.5348 70.7979 17.0116" stroke="#0B0B0B" stroke-width="3" stroke-linecap="round"/>
<path d="M78.0705 14.1833C77.9371 14.1833 77.5351 14.1833 76.7634 14.3833C74.7488 14.9055 74.7736 16.9388 74.2019 17.9832C72.4752 21.1376 72.9514 25.3588 73.2868 25.8962C73.6642 26.5011 74.2968 26.7749 75.2342 26.8759C76.9618 27.0621 78.2038 26.7103 78.5391 26.2739C79.5476 24.9616 80.4906 23.6134 80.5967 17.1388C80.6197 15.7315 80.2967 15.4682 80.0936 15.2308C79.8906 14.9934 79.6906 14.7934 79.5876 14.7904C79.4846 14.7874 79.4846 14.9874 79.5179 15.1904C79.6522 16.0083 80.4259 16.7368 80.6623 18.2166C81.0245 20.4839 81.1653 21.5852 81.436 23.1669C81.684 24.6162 83.1168 25.1568 84.0935 25.4618C84.3225 25.5333 84.5309 25.4962 84.7339 25.3295C85.543 24.3528 86.149 23.9487 86.5187 23.5467C86.6884 23.278 86.8217 22.8781 87.1611 22.2639" stroke="#0B0B0B" stroke-width="3" stroke-linecap="round"/>
<path d="M92.8173 12.567C92.9507 12.5004 93.084 12.4337 93.086 12.2994C93.0914 11.9402 92.6173 11.559 91.9143 11.2559C91.4428 11.0527 90.6113 11.1529 90.0992 11.2529C89.5871 11.3529 89.3871 11.5529 89.2508 11.8559C88.6997 13.0805 88.5791 14.1104 88.3397 15.8599C87.9662 18.589 88.571 22.6637 89.2124 23.6071C89.7961 24.4656 90.9952 24.8859 91.9719 25.1253C92.4077 25.2321 92.9487 25.2939 93.5204 25.1939C94.506 25.0215 94.7688 23.5485 95.2395 22.6708C95.3748 22.4678 95.5082 22.2678 95.5769 21.7647C95.6455 21.2617 95.6455 20.4618 95.8476 19.4355" stroke="#0B0B0B" stroke-width="3" stroke-linecap="round"/>
<path d="M98.0698 2.46631C98.0698 2.8663 98.0698 3.26629 98.0698 6.1056C98.0698 8.94492 98.0698 14.2114 98.1698 17.1245C98.3104 21.2208 99.1445 22.793 99.9849 24.4132C100.412 25.2371 101.5 25.294 102.306 25.2273C103.924 24.6233 105.536 23.2819 106.183 21.8981C106.284 21.5931 106.417 21.3264 106.756 20.8496" stroke="#0B0B0B" stroke-width="3" stroke-linecap="round"/>
<path d="M94.4336 8.12287C94.6336 8.12287 94.8336 8.12287 96.4699 8.0562C98.1062 7.98954 101.173 7.85621 103.119 7.68752C105.066 7.51884 105.799 7.31885 106.958 7.11279" stroke="#0B0B0B" stroke-width="3" stroke-linecap="round"/>
<path d="M111.403 11.1531C111.403 12.4237 111.536 15.2499 111.94 16.5701C112.19 17.3869 112.211 18.3529 112.58 19.4316C112.976 20.5918 113.69 21.6538 114.43 22.0942C114.831 22.3325 115.972 22.4659 117.52 22.3659C118.401 22.0659 119.075 21.4599 119.948 20.5872C120.421 20.1144 120.954 19.5811 121.504 19.0316" stroke="#0B0B0B" stroke-width="3" stroke-linecap="round"/>
<path d="M106.15 22.2639C106.284 21.4599 106.954 20.2478 107.596 19.3387C108.443 18.1382 109.043 17.0196 109.616 15.9378C109.985 15.3348 110.324 14.7247 110.559 14.2207C110.661 13.9833 110.728 13.7833 110.797 13.3752" stroke="#0B0B0B" stroke-width="3" stroke-linecap="round"/>
<path d="M111.605 10.7489C111.605 10.6823 111.605 10.6156 111.538 10.6813C111.471 10.7469 111.338 10.9469 111.269 11.1833C111.201 11.4196 111.201 11.6863 111.201 11.961" stroke="#0B0B0B" stroke-width="3" stroke-linecap="round"/>
<path d="M111.201 7.11281C111.201 7.04614 111.201 6.97948 111.167 6.81181C111.134 6.64414 111.067 6.37748 110.966 6.14011C110.865 5.90274 110.732 5.70275 110.595 5.29468" stroke="#0B0B0B" stroke-width="3" stroke-linecap="round"/>
<path d="M112.009 7.31474C112.275 7.31474 112.542 7.31474 112.746 7.21474C112.95 7.11474 113.084 6.91475 113.219 6.71172C113.354 6.5087 113.488 6.3087 113.827 5.90063" stroke="#0B0B0B" stroke-width="3" stroke-linecap="round"/>
<path d="M133.422 11.3551C134.699 11.4218 137.374 11.5571 139.277 10.9884C140.175 10.7199 140.289 9.60565 140.592 9.10364C140.79 8.77591 140.695 8.13498 140.595 7.75923C140.312 6.69837 138.881 6.70876 137.637 6.54108C136.411 6.37566 135.244 6.7734 134.505 7.31076C133.079 8.34743 131.948 10.6036 131.737 14.2702C131.655 15.7083 132.612 16.3368 133.015 16.6388C134.382 17.6634 137.054 17.3468 140.344 17.3489C142.309 16.8115 143.115 16.1388 143.891 15.7004C144.06 15.5328 144.194 15.2661 144.331 14.9914" stroke="#0B0B0B" stroke-width="3" stroke-linecap="round"/>
<path d="M120.325 21.0201C120.66 20.6876 121.327 19.6802 121.668 16.4576C121.773 15.4582 122.088 14.2298 121.922 12.6771C121.836 11.8715 120.831 11.7036 120.454 11.492C119.468 10.9403 121.076 13.9628 121.542 15.7649C122.102 17.9312 122.254 19.6701 123.216 21.0982C123.532 21.567 124.093 22.0175 124.516 22.1497C126.637 22.8125 127.71 17.6703 127.923 16.1981C128.133 14.6429 128.216 13.7185 128.342 12.2187C128.385 10.9682 128.385 8.72405 128.888 5.9082" stroke="#0B0B0B" stroke-width="3" stroke-linecap="round"/>
</svg>
