<svg width="137" height="78" viewBox="0 0 137 78" fill="none" xmlns="http://www.w3.org/2000/svg">
<path d="M1.79346 2.14331C3.81425 2.14331 6.15435 2.14331 8.267 2.432C9.65588 2.62178 10.3884 6.63542 11.6984 13.9663C12.5122 18.52 12.7197 24.9057 13.448 30.7034C14.8175 41.6059 16.9494 48.4904 18.5481 51.1148C19.199 52.1832 20.4355 52.0071 21.3169 51.7905C22.9966 51.3779 24.6739 46.942 26.2048 37.6472C27.1094 32.1549 26.7253 24.8882 26.8697 24.9953C27.014 25.1025 27.3027 32.7527 27.8123 39.0031C28.3218 45.2536 29.0436 49.8725 29.704 52.0355C30.3645 54.1984 30.9419 53.7654 31.6002 53.0371C34.5619 49.7605 34.7385 45.0305 36.4072 36.9145C37.4985 30.9637 39.0863 21.2927 39.9042 16.0221C40.7222 10.7514 40.7222 10.174 40.7222 9.57913" stroke="#7C0000" stroke-width="3" stroke-linecap="round"/>
<path d="M47.7202 36.2607C47.7202 44.2564 48.0089 49.5227 49.0237 50.3976C49.7498 50.695 50.9045 50.695 51.788 50.4785C52.6716 50.262 53.249 49.8289 53.8438 48.9454" stroke="#7C0000" stroke-width="3" stroke-linecap="round"/>
<path d="M48.595 28.3875C48.595 28.5319 48.595 28.6762 48.3785 28.7506C48.162 28.8249 47.729 28.8249 47.4337 28.6084C46.8012 28.1446 46.8454 26.2137 46.8454 25.1114C46.8454 24.9146 46.8454 27.0404 47.1341 27.7161C47.9028 29.5156 50.3402 26.3493 50.9963 25.6232C51.3255 25.2589 51.2194 24.6084 51.0751 24.5997C49.2177 24.4871 48.7437 27.3597 48.0898 28.5253C47.8085 29.0267 47.2916 29.1136 46.9963 28.8993C46.5567 28.1076 46.1193 27.0797 45.6819 26.2071C45.5332 25.7675 45.5332 25.3345 45.5332 24.8883" stroke="#7C0000" stroke-width="3" stroke-linecap="round"/>
<path d="M70.0277 15.2654C69.5946 19.6306 68.4268 25.4306 67.552 32.1469C66.6736 38.8909 68.125 43.9808 69.3628 45.2908C69.879 45.8791 70.1676 46.3121 70.6772 46.5352C71.1868 46.7583 71.9085 46.7583 73.0895 45.8835" stroke="#7C0000" stroke-width="3" stroke-linecap="round"/>
<path d="M66.0912 34.5111C66.0912 33.9338 66.0912 33.2033 65.8747 32.475C65.6512 31.7232 63.3356 31.8867 60.4991 32.5363C59.0007 32.8794 57.8069 34.4849 57.1376 36.4532C55.652 40.8228 57.0458 44.5626 58.2814 46.0913C60.2067 48.4732 62.4389 48.2149 63.8211 48.1449C65.059 47.3532 65.9425 46.0367 66.3799 44.2215C66.5286 43.1279 66.5286 41.6845 66.5286 40.1974" stroke="#7C0000" stroke-width="3" stroke-linecap="round"/>
<path d="M82.9548 34.3129C82.2264 33.2847 81.7142 32.7712 81.1338 32.4907C80.9864 32.4194 80.8134 32.3414 80.6197 32.2976C79.4131 32.0251 77.7274 34.2203 77.165 35.2961C76.9694 35.6704 76.8639 36.2819 76.7571 37.0527C76.6721 37.6661 76.4778 39.53 76.5834 42.2087C76.6257 43.283 77.0711 43.7407 77.5222 43.9814C79.9208 45.2611 82.9085 43.2388 83.66 42.6585C85.2163 41.4566 83.8144 37.193 83.4921 36.3533C83.3415 35.9612 83.171 35.6011 82.9348 35.493C82.7615 35.4136 82.9973 36.1545 83.1678 36.8809C83.2701 37.3169 83.5082 37.8622 84.6368 43.6674C85.7654 49.4726 87.8038 60.5142 88.8539 66.6906C89.904 72.8671 89.904 73.8438 89.7766 74.5169C89.6492 75.1899 89.3944 75.5297 89.0933 75.7259C88.5203 76.0993 87.4654 76.0084 86.118 75.9235C84.6243 75.8293 83.0487 74.9416 81.4652 73.6804C80.6426 73.0252 79.9666 72.122 79.255 70.9412C78.5433 69.7605 77.8638 68.2741 77.4289 67.2112C76.9939 66.1482 76.824 65.5536 76.7153 63.5699C76.6065 61.5861 76.5641 58.2312 76.7545 56.057C76.945 53.8828 77.3697 52.991 77.9069 52.1281C78.4442 51.2652 79.0812 50.4583 79.8341 49.6605C80.5869 48.8626 81.4363 48.0982 82.5957 47.2797C83.7552 46.4612 85.1991 45.6119 86.8155 44.6081" stroke="#7C0000" stroke-width="3" stroke-linecap="round"/>
<path d="M91.3199 35.9859C92.509 36.4955 93.6311 36.8854 94.9341 37.0785C96.7703 37.3505 98.3927 36.7619 99.2922 36.1191C99.6738 35.8464 99.9369 35.7311 100.068 35.347C100.199 34.9628 100.199 34.3258 100.072 33.8702C99.9447 33.4147 99.6899 33.1599 99.3463 33.0074C97.8649 32.3499 95.6657 32.4688 93.5436 32.7867C92.6709 32.9174 92.4832 33.9114 92.0972 35.4943C91.7111 37.0772 91.2015 39.4554 90.939 41.1901C90.6764 42.9248 90.6764 43.9441 90.7614 44.5328C90.8463 45.1216 91.0162 45.249 91.3372 45.3571C91.6583 45.4652 92.1255 45.5501 93.5977 45.5514C95.0699 45.5527 97.533 45.4678 99.1204 45.3391C101.345 45.0405 102.213 44.6956 102.641 44.3958C102.857 44.2658 103.069 44.1809 103.288 44.0934" stroke="#7C0000" stroke-width="3" stroke-linecap="round"/>
<path d="M109.208 20.2856C109.208 20.3281 109.208 20.3706 109.229 22.898C109.25 25.4255 109.292 30.4367 109.527 34.3135C109.761 38.1902 110.186 40.7808 110.553 42.4126C111.063 44.6793 111.609 45.3789 111.801 45.6144C112.538 46.5164 116.607 45.2154 117.936 44.332C118.001 44.1383 118.043 43.926 118.065 43.6679C118.087 43.4099 118.087 43.1126 118.087 42.8064" stroke="#7C0000" stroke-width="3" stroke-linecap="round"/>
<path d="M106.891 35.4712H117.958" stroke="#7C0000" stroke-width="3" stroke-linecap="round"/>
<path d="M132.352 34.7863C132.352 34.7018 132.352 34.0668 132.289 33.0649C132.248 32.4162 131.672 31.9299 131.097 31.4395C130.284 30.7453 129.241 30.9043 127.898 31.0074C126.995 31.0767 126.635 32.2653 126.315 33.1571C125.462 35.533 126.716 36.5301 127.016 37.3022C127.246 37.8939 128.037 38.5377 128.679 38.8828C129.41 39.2751 130.173 39.224 130.898 39.3098C131.49 39.3798 132.05 39.6926 132.734 40.0133C133.571 40.4062 134.314 41.3135 134.528 41.8474C134.651 42.1536 134.657 42.8473 134.403 43.7846C133.911 45.6034 132.27 45.2416 131.289 45.4336C129.647 45.7549 126.47 45.4157 125.59 44.8389C124.971 44.4337 124.289 43.8358 124.031 43.154C123.988 42.9818 123.945 42.855 123.902 42.7244" stroke="#7C0000" stroke-width="3" stroke-linecap="round"/>
</svg>
