<svg width="441" height="96" viewBox="0 0 441 96" fill="none" xmlns="http://www.w3.org/2000/svg">
<g filter="url(#filter0_dd_124_962)">
<path d="M70.5517 3.08887H25.9201C13.7495 3.08887 3.8833 12.9551 3.8833 25.1257V69.7573C3.8833 81.9279 13.7495 91.7941 25.9201 91.7941H70.5517C82.7223 91.7941 92.5886 81.9279 92.5886 69.7573V25.1257C92.5886 12.9551 82.7223 3.08887 70.5517 3.08887Z" fill="white"/>
<path d="M70.5517 3.08887H25.9201C13.7495 3.08887 3.8833 12.9551 3.8833 25.1257V69.7573C3.8833 81.9279 13.7495 91.7941 25.9201 91.7941H70.5517C82.7223 91.7941 92.5886 81.9279 92.5886 69.7573V25.1257C92.5886 12.9551 82.7223 3.08887 70.5517 3.08887Z" fill="url(#paint0_linear_124_962)"/>
<path d="M70.5517 3.08887H25.9201C13.7495 3.08887 3.8833 12.9551 3.8833 25.1257V69.7573C3.8833 81.9279 13.7495 91.7941 25.9201 91.7941H70.5517C82.7223 91.7941 92.5886 81.9279 92.5886 69.7573V25.1257C92.5886 12.9551 82.7223 3.08887 70.5517 3.08887Z" stroke="#A1A0B8" stroke-width="0.2"/>
<path d="M46.6678 37.6775C58.8188 32.8447 72.107 36.6613 78.1406 42.5047C79.4483 43.7705 80.5585 45.0548 81.5095 46.3316C82.052 43.3343 82.0961 40.349 81.5742 37.4619C79.6676 26.9204 69.7225 20.9485 60.8068 24.0333C51.9313 27.1043 48.4695 33.0729 48.4695 33.0729C48.4695 33.0729 45.0078 27.1043 36.1323 24.0333C27.216 20.9485 17.2709 26.921 15.3651 37.4619C13.9581 45.2414 16.6225 53.7348 22.2761 61.2402C23.4669 61.6402 24.715 61.9406 26.0372 62.1138C33.957 63.1551 36.804 61.0371 40.1497 59.6189C42.3712 58.678 44.0424 59.7461 43.9615 60.4948C43.8354 61.6553 39.4565 63.6383 40.3954 64.0548C44.1029 65.6997 48.6687 65.7134 52.1093 62.7749C56.385 59.1241 57.9844 61.6198 57.9844 61.6198C57.9844 61.6198 55.8611 67.0361 49.4673 69.7255C44.1328 71.9693 38.5429 72.5222 33.4351 71.9476C37.8405 75.0615 42.899 77.6718 48.4695 79.5349C64.3958 74.2073 76.1609 62.7948 80.3089 50.8628C77.4988 48.0903 74.0524 46.3717 69.944 45.7488C62.0459 44.5513 59.158 46.6136 55.7847 47.9651C53.5447 48.8627 51.895 47.7614 51.9913 47.0141C52.1397 45.8562 56.5576 43.9602 55.6265 43.5248C51.9525 41.8073 47.3875 41.7033 43.8895 44.5731C39.5427 48.1391 37.9928 45.6124 37.9928 45.6124C37.9928 45.6124 40.2222 40.2402 46.6678 37.6775ZM43.6452 52.5242H46.7133V49.4558H50.2247V52.5242H53.2928V56.0353H50.2247V59.1037H46.7133V56.0353H43.6452V52.5242Z" fill="url(#paint1_linear_124_962)"/>
<path d="M43.6454 52.5241H46.7135V49.4557H50.2249V52.5241H53.293V56.0352H50.2478C54.772 58.3215 63.0808 61.7224 73.0654 63.2357C76.3511 59.3489 78.8218 55.1398 80.3085 50.8627C77.4984 48.0903 74.0518 46.3717 69.9437 45.7488C62.0453 44.5515 59.1576 46.6135 55.784 47.965C53.5441 48.8627 51.8947 47.7614 51.9909 47.0141C52.1393 45.8562 56.5573 43.9605 55.6259 43.5247C51.9521 41.8073 47.3872 41.7032 43.8892 44.5733C39.5423 48.1391 37.9922 45.6124 37.9922 45.6124C37.9922 45.6124 40.2224 40.2396 46.6675 37.676C58.8182 32.8436 72.1064 36.6598 78.1403 42.5032C79.4477 43.7691 80.5582 45.0536 81.5091 46.3301C82.0514 43.3328 82.0958 40.3475 81.5738 37.4604C79.6672 26.919 69.7222 20.9472 60.8065 24.032C51.9309 27.1028 48.4692 33.0715 48.4692 33.0715C48.4692 33.0715 45.0075 27.1028 36.1319 24.032C31.0397 22.2698 25.6137 23.4666 21.5396 26.7773C23.4532 30.875 25.6954 34.7039 32.0816 42.4045C37.2739 48.6663 43.6454 52.5241 43.6454 52.5241Z" fill="url(#paint2_linear_124_962)"/>
<path d="M50.2789 49.4324H46.7073V59.1068H50.2789V49.4324Z" fill="#FEB21A"/>
<path d="M43.6055 52.4899V56.0493H53.3128V52.4899H43.6055Z" fill="#FEB21A"/>
</g>
<path d="M121.163 73.4415V25.7615H129.483L147.339 50.0175H143.371L160.843 25.7615H169.163V73.4415H160.395V35.6815L163.787 36.5135L145.675 60.6415H144.651L126.987 36.5135L129.867 35.6815V73.4415H121.163ZM194.096 74.2095C190.512 74.2095 187.376 73.3989 184.688 71.7775C182 70.1562 179.909 67.9589 178.416 65.1855C176.922 62.4122 176.176 59.3402 176.176 55.9695C176.176 52.4709 176.922 49.3775 178.416 46.6895C179.952 43.9589 182.021 41.8042 184.624 40.2255C187.269 38.6469 190.213 37.8575 193.456 37.8575C196.186 37.8575 198.576 38.3055 200.624 39.2015C202.714 40.0975 204.485 41.3349 205.936 42.9135C207.386 44.4922 208.496 46.3055 209.264 48.3535C210.032 50.3589 210.416 52.5349 210.416 54.8815C210.416 55.4789 210.373 56.0975 210.288 56.7375C210.245 57.3775 210.138 57.9322 209.968 58.4015H183.088V52.0015H205.232L201.264 55.0095C201.648 53.0469 201.541 51.2975 200.944 49.7615C200.389 48.2255 199.45 47.0095 198.128 46.1135C196.848 45.2175 195.29 44.7695 193.456 44.7695C191.706 44.7695 190.149 45.2175 188.784 46.1135C187.418 46.9669 186.373 48.2469 185.648 49.9535C184.965 51.6175 184.709 53.6442 184.88 56.0335C184.709 58.1669 184.986 60.0655 185.712 61.7295C186.48 63.3509 187.589 64.6095 189.04 65.5055C190.533 66.4015 192.24 66.8495 194.16 66.8495C196.08 66.8495 197.701 66.4442 199.024 65.6335C200.389 64.8229 201.456 63.7349 202.224 62.3695L209.008 65.6975C208.325 67.3615 207.258 68.8335 205.808 70.1135C204.357 71.3935 202.629 72.3962 200.624 73.1215C198.661 73.8469 196.485 74.2095 194.096 74.2095ZM232.963 74.2095C229.593 74.2095 226.585 73.4202 223.939 71.8415C221.294 70.2202 219.203 68.0229 217.667 65.2495C216.131 62.4762 215.363 59.4042 215.363 56.0335C215.363 52.6202 216.131 49.5482 217.667 46.8175C219.203 44.0869 221.294 41.9109 223.939 40.2895C226.627 38.6682 229.614 37.8575 232.899 37.8575C235.545 37.8575 237.891 38.3909 239.939 39.4575C242.03 40.4815 243.673 41.9322 244.867 43.8095L243.587 45.5375V24.9935H251.971V73.4415H244.035V66.7215L244.931 68.3855C243.737 70.2629 242.073 71.7135 239.939 72.7375C237.806 73.7189 235.481 74.2095 232.963 74.2095ZM233.859 66.5295C235.779 66.5295 237.465 66.0815 238.915 65.1855C240.366 64.2895 241.497 63.0522 242.307 61.4735C243.161 59.8949 243.587 58.0815 243.587 56.0335C243.587 54.0282 243.161 52.2362 242.307 50.6575C241.497 49.0362 240.366 47.7775 238.915 46.8815C237.465 45.9855 235.779 45.5375 233.859 45.5375C231.982 45.5375 230.297 46.0069 228.803 46.9455C227.31 47.8415 226.137 49.0789 225.283 50.6575C224.473 52.1935 224.067 53.9855 224.067 56.0335C224.067 58.0815 224.473 59.8949 225.283 61.4735C226.137 63.0522 227.31 64.2895 228.803 65.1855C230.297 66.0815 231.982 66.5295 233.859 66.5295ZM259.771 73.4415V38.6255H268.155V73.4415H259.771ZM259.771 34.7215V25.7615H268.155V34.7215H259.771ZM285.048 73.4415V33.4415H272.696V25.7615H305.976V33.4415H293.816V73.4415H285.048ZM306.771 73.4415V38.6255H314.643V46.3695L314.003 45.2175C314.814 42.6149 316.073 40.8015 317.779 39.7775C319.529 38.7535 321.619 38.2415 324.051 38.2415H326.099V45.6655H323.091C320.702 45.6655 318.782 46.4122 317.331 47.9055C315.881 49.3562 315.155 51.4042 315.155 54.0495V73.4415H306.771ZM341.269 74.2095C338.837 74.2095 336.725 73.8042 334.933 72.9935C333.141 72.1829 331.754 71.0309 330.773 69.5375C329.791 68.0015 329.301 66.2309 329.301 64.2255C329.301 62.3055 329.727 60.5989 330.581 59.1055C331.434 57.5695 332.757 56.2895 334.549 55.2655C336.341 54.2415 338.602 53.5162 341.333 53.0895L352.725 51.2335V57.6335L342.933 59.2975C341.269 59.5962 340.031 60.1295 339.221 60.8975C338.41 61.6655 338.005 62.6682 338.005 63.9055C338.005 65.1002 338.453 66.0602 339.349 66.7855C340.287 67.4682 341.439 67.8095 342.805 67.8095C344.554 67.8095 346.09 67.4469 347.413 66.7215C348.778 65.9535 349.823 64.9082 350.549 63.5855C351.317 62.2629 351.701 60.8122 351.701 59.2335V50.2735C351.701 48.7802 351.103 47.5429 349.909 46.5615C348.757 45.5375 347.221 45.0255 345.301 45.0255C343.509 45.0255 341.909 45.5162 340.501 46.4975C339.135 47.4362 338.133 48.6949 337.493 50.2735L330.645 46.9455C331.327 45.1109 332.394 43.5322 333.845 42.2095C335.338 40.8442 337.087 39.7775 339.093 39.0095C341.098 38.2415 343.274 37.8575 345.621 37.8575C348.479 37.8575 350.997 38.3909 353.173 39.4575C355.349 40.4815 357.034 41.9322 358.229 43.8095C359.466 45.6442 360.085 47.7989 360.085 50.2735V73.4415H352.149V67.4895L353.941 67.3615C353.045 68.8549 351.978 70.1135 350.741 71.1375C349.503 72.1189 348.095 72.8869 346.517 73.4415C344.938 73.9535 343.189 74.2095 341.269 74.2095ZM384.602 74.2095C381.146 74.2095 378.031 73.4202 375.258 71.8415C372.527 70.2202 370.372 68.0442 368.794 65.3135C367.215 62.5402 366.426 59.4255 366.426 55.9695C366.426 52.5135 367.215 49.4202 368.794 46.6895C370.372 43.9589 372.527 41.8042 375.258 40.2255C378.031 38.6469 381.146 37.8575 384.602 37.8575C387.076 37.8575 389.38 38.3055 391.514 39.2015C393.647 40.0549 395.482 41.2495 397.018 42.7855C398.596 44.2789 399.727 46.0709 400.41 48.1615L393.05 51.3615C392.41 49.6122 391.322 48.2042 389.786 47.1375C388.292 46.0709 386.564 45.5375 384.602 45.5375C382.767 45.5375 381.124 45.9855 379.674 46.8815C378.266 47.7775 377.156 49.0149 376.346 50.5935C375.535 52.1722 375.13 53.9855 375.13 56.0335C375.13 58.0815 375.535 59.8949 376.346 61.4735C377.156 63.0522 378.266 64.2895 379.674 65.1855C381.124 66.0815 382.767 66.5295 384.602 66.5295C386.607 66.5295 388.356 65.9962 389.85 64.9295C391.343 63.8629 392.41 62.4335 393.05 60.6415L400.41 63.9695C399.727 65.9322 398.618 67.7029 397.082 69.2815C395.546 70.8175 393.711 72.0335 391.578 72.9295C389.444 73.7829 387.119 74.2095 384.602 74.2095ZM406.771 73.4415V24.9935H415.155V56.7375L411.955 55.7775L428.339 38.6255H438.771L425.907 52.6415L439.027 73.4415H429.427L418.035 55.3935L423.027 54.3695L412.531 65.6335L415.155 60.5135V73.4415H406.771Z" fill="white"/>
<defs>
<filter id="filter0_dd_124_962" x="0.783203" y="0.988892" width="94.9053" height="94.9053" filterUnits="userSpaceOnUse" color-interpolation-filters="sRGB">
<feFlood flood-opacity="0" result="BackgroundImageFix"/>
<feColorMatrix in="SourceAlpha" type="matrix" values="0 0 0 0 0 0 0 0 0 0 0 0 0 0 0 0 0 0 127 0" result="hardAlpha"/>
<feOffset dy="1"/>
<feGaussianBlur stdDeviation="1"/>
<feColorMatrix type="matrix" values="0 0 0 0 0.0627451 0 0 0 0 0.0941176 0 0 0 0 0.156863 0 0 0 0.06 0"/>
<feBlend mode="normal" in2="BackgroundImageFix" result="effect1_dropShadow_124_962"/>
<feColorMatrix in="SourceAlpha" type="matrix" values="0 0 0 0 0 0 0 0 0 0 0 0 0 0 0 0 0 0 127 0" result="hardAlpha"/>
<feOffset dy="1"/>
<feGaussianBlur stdDeviation="1.5"/>
<feColorMatrix type="matrix" values="0 0 0 0 0.0627451 0 0 0 0 0.0941176 0 0 0 0 0.156863 0 0 0 0.1 0"/>
<feBlend mode="normal" in2="effect1_dropShadow_124_962" result="effect2_dropShadow_124_962"/>
<feBlend mode="normal" in="SourceGraphic" in2="effect2_dropShadow_124_962" result="shape"/>
</filter>
<linearGradient id="paint0_linear_124_962" x1="48.2359" y1="2.80992" x2="48.2359" y2="92.0731" gradientUnits="userSpaceOnUse">
<stop stop-color="#9D9CB5"/>
<stop offset="1" stop-color="white"/>
</linearGradient>
<linearGradient id="paint1_linear_124_962" x1="30.6713" y1="71.2959" x2="73.1126" y2="19.2533" gradientUnits="userSpaceOnUse">
<stop offset="0.0947764" stop-color="#ED3127"/>
<stop offset="0.192826" stop-color="#7E5C78"/>
<stop offset="0.249249" stop-color="#0F86C8"/>
<stop offset="0.326217" stop-color="#134686"/>
</linearGradient>
<linearGradient id="paint2_linear_124_962" x1="29.9161" y1="69.0297" x2="73.0925" y2="19.2176" gradientUnits="userSpaceOnUse">
<stop offset="0.459783" stop-color="#134686"/>
<stop offset="0.547518" stop-color="#803C57"/>
<stop offset="0.745699" stop-color="#ED3127"/>
</linearGradient>
</defs>
</svg>
