<svg width="701" height="598" viewBox="0 0 701 598" fill="none" xmlns="http://www.w3.org/2000/svg">
<g clip-path="url(#clip0_4_2)">
<path d="M618.388 595.447L618.404 594.75C618.719 583.062 621.576 571.583 626.776 561.11C631.977 550.637 639.395 541.423 648.516 534.107C653.664 530.044 659.304 526.645 665.302 523.992L665.874 523.737L665.971 524.355C667.133 531.735 668.972 539.268 669.829 542.611L675.573 520.197L676.212 520.013C679.139 519.153 682.256 519.19 685.161 520.119C688.067 521.047 690.628 522.824 692.515 525.221C694.483 527.619 695.689 530.551 695.976 533.64C696.263 536.729 695.619 539.834 694.126 542.553C692.788 545.048 691.471 547.651 690.198 550.167C685.824 558.817 681.302 567.761 674.711 574.709C669.671 579.92 663.53 583.939 656.738 586.472C649.946 589.006 642.673 589.991 635.452 589.354L618.388 595.447Z" fill="#0B4200"/>
<path d="M246.5 101.003H74.8516C71.7644 101.043 68.7768 99.9116 66.4902 97.8371C64.2035 95.7626 62.7876 92.899 62.5274 89.8225C62.4161 88.1816 62.6431 86.5354 63.1943 84.9859C63.7455 83.4363 64.6092 82.0165 65.7318 80.8146C66.8543 79.6126 68.2119 78.6541 69.7202 77.9985C71.2285 77.3428 72.8554 77.0041 74.5001 77.0032H246.5C249.683 77.0032 252.735 78.2674 254.985 80.5179C257.236 82.7683 258.5 85.8206 258.5 89.0032C258.5 92.1858 257.236 95.238 254.985 97.4884C252.735 99.7389 249.683 101.003 246.5 101.003Z" fill="#9D0020"/>
<path d="M345.236 120.503H63C62.7348 120.503 62.4804 120.398 62.2929 120.21C62.1053 120.023 62 119.768 62 119.503C62 119.238 62.1053 118.984 62.2929 118.796C62.4804 118.609 62.7348 118.503 63 118.503H345.236C345.502 118.503 345.756 118.609 345.943 118.796C346.131 118.984 346.236 119.238 346.236 119.503C346.236 119.768 346.131 120.023 345.943 120.21C345.756 120.398 345.502 120.503 345.236 120.503Z" fill="#E8D1A7"/>
<path d="M333.5 101.503H74.5C71.1848 101.503 68.0054 100.186 65.6612 97.842C63.317 95.4978 62 92.3184 62 89.0032C62 85.688 63.317 82.5085 65.6612 80.1643C68.0054 77.8201 71.1848 76.5032 74.5 76.5032H333.5C336.815 76.5032 339.995 77.8201 342.339 80.1643C344.683 82.5085 346 85.688 346 89.0032C346 92.3184 344.683 95.4978 342.339 97.842C339.995 100.186 336.815 101.503 333.5 101.503ZM74.5 78.5032C71.7152 78.5032 69.0445 79.6094 67.0754 81.5786C65.1062 83.5477 64 86.2184 64 89.0032C64 91.7879 65.1062 94.4587 67.0754 96.4278C69.0445 98.3969 71.7152 99.5032 74.5 99.5032H333.5C336.285 99.5032 338.955 98.3969 340.925 96.4278C342.894 94.4587 344 91.7879 344 89.0032C344 86.2184 342.894 83.5477 340.925 81.5786C338.955 79.6094 336.285 78.5032 333.5 78.5032H74.5Z" fill="#3F3D56"/>
<path d="M169.5 195.003H74.8516C71.7644 195.043 68.7768 193.912 66.4902 191.837C64.2035 189.763 62.7876 186.899 62.5274 183.823C62.4161 182.182 62.6431 180.535 63.1943 178.986C63.7455 177.436 64.6092 176.017 65.7318 174.815C66.8543 173.613 68.2119 172.654 69.7202 171.999C71.2285 171.343 72.8554 171.004 74.5001 171.003H169.5C172.683 171.003 175.735 172.267 177.985 174.518C180.236 176.768 181.5 179.821 181.5 183.003C181.5 186.186 180.236 189.238 177.985 191.488C175.735 193.739 172.683 195.003 169.5 195.003Z" fill="#9D0020"/>
<path d="M345.236 214.503H63C62.7348 214.503 62.4804 214.398 62.2929 214.21C62.1053 214.023 62 213.768 62 213.503C62 213.238 62.1053 212.984 62.2929 212.796C62.4804 212.609 62.7348 212.503 63 212.503H345.236C345.502 212.503 345.756 212.609 345.943 212.796C346.131 212.984 346.236 213.238 346.236 213.503C346.236 213.768 346.131 214.023 345.943 214.21C345.756 214.398 345.502 214.503 345.236 214.503Z" fill="#E8D1A7"/>
<path d="M333.5 195.503H74.5C71.1848 195.503 68.0054 194.186 65.6612 191.842C63.317 189.498 62 186.318 62 183.003C62 179.688 63.317 176.509 65.6612 174.164C68.0054 171.82 71.1848 170.503 74.5 170.503H333.5C336.815 170.503 339.995 171.82 342.339 174.164C344.683 176.509 346 179.688 346 183.003C346 186.318 344.683 189.498 342.339 191.842C339.995 194.186 336.815 195.503 333.5 195.503ZM74.5 172.503C71.7152 172.503 69.0445 173.609 67.0754 175.579C65.1062 177.548 64 180.218 64 183.003C64 185.788 65.1062 188.459 67.0754 190.428C69.0445 192.397 71.7152 193.503 74.5 193.503H333.5C336.285 193.503 338.955 192.397 340.925 190.428C342.894 188.459 344 185.788 344 183.003C344 180.218 342.894 177.548 340.925 175.579C338.955 173.609 336.285 172.503 333.5 172.503H74.5Z" fill="#3F3D56"/>
<path d="M296.5 289.003H74.8516C71.7644 289.043 68.7768 287.912 66.4902 285.837C64.2035 283.763 62.7876 280.899 62.5274 277.823C62.4161 276.182 62.6431 274.535 63.1943 272.986C63.7455 271.436 64.6092 270.017 65.7318 268.815C66.8543 267.613 68.2119 266.654 69.7202 265.999C71.2285 265.343 72.8554 265.004 74.5001 265.003H296.5C299.683 265.003 302.735 266.267 304.985 268.518C307.236 270.768 308.5 273.821 308.5 277.003C308.5 280.186 307.236 283.238 304.985 285.488C302.735 287.739 299.683 289.003 296.5 289.003Z" fill="#9D0020"/>
<path d="M345.236 308.503H63C62.7348 308.503 62.4804 308.398 62.2929 308.21C62.1053 308.023 62 307.768 62 307.503C62 307.238 62.1053 306.984 62.2929 306.796C62.4804 306.609 62.7348 306.503 63 306.503H345.236C345.502 306.503 345.756 306.609 345.943 306.796C346.131 306.984 346.236 307.238 346.236 307.503C346.236 307.768 346.131 308.023 345.943 308.21C345.756 308.398 345.502 308.503 345.236 308.503Z" fill="#E8D1A7"/>
<path d="M333.5 289.503H74.5C71.1848 289.503 68.0054 288.186 65.6612 285.842C63.317 283.498 62 280.318 62 277.003C62 273.688 63.317 270.509 65.6612 268.164C68.0054 265.82 71.1848 264.503 74.5 264.503H333.5C336.815 264.503 339.995 265.82 342.339 268.164C344.683 270.509 346 273.688 346 277.003C346 280.318 344.683 283.498 342.339 285.842C339.995 288.186 336.815 289.503 333.5 289.503ZM74.5 266.503C71.7152 266.503 69.0445 267.609 67.0754 269.579C65.1062 271.548 64 274.218 64 277.003C64 279.788 65.1062 282.459 67.0754 284.428C69.0445 286.397 71.7152 287.503 74.5 287.503H333.5C336.285 287.503 338.955 286.397 340.925 284.428C342.894 282.459 344 279.788 344 277.003C344 274.218 342.894 271.548 340.925 269.579C338.955 267.609 336.285 266.503 333.5 266.503H74.5Z" fill="#3F3D56"/>
<path d="M230.214 88.806H228.214V11.763H372.871V13.763H230.214V88.806Z" fill="#E8D1A7"/>
<path d="M379.054 23.8918C385.652 23.8918 391 18.5434 391 11.9459C391 5.34836 385.652 0 379.054 0C372.457 0 367.108 5.34836 367.108 11.9459C367.108 18.5434 372.457 23.8918 379.054 23.8918Z" fill="#E8D1A7"/>
<path d="M160.786 182.806H162.786V138.763H18.129V140.763H160.786V182.806Z" fill="#E8D1A7"/>
<path d="M11.9459 150.892C18.5434 150.892 23.8918 145.543 23.8918 138.946C23.8918 132.348 18.5434 127 11.9459 127C5.34836 127 0 132.348 0 138.946C0 145.543 5.34836 150.892 11.9459 150.892Z" fill="#E8D1A7"/>
<path d="M296.214 280.201H294.214V335.244H416.871V333.244H296.214V280.201Z" fill="#E8D1A7"/>
<path d="M423.054 347.006C429.652 347.006 435 341.658 435 335.061C435 328.463 429.652 323.115 423.054 323.115C416.457 323.115 411.108 328.463 411.108 335.061C411.108 341.658 416.457 347.006 423.054 347.006Z" fill="#E8D1A7"/>
<path d="M699.556 597.469L427.806 597.777C427.649 597.777 427.494 597.747 427.349 597.687C427.205 597.627 427.073 597.54 426.962 597.429C426.851 597.319 426.763 597.187 426.703 597.042C426.643 596.898 426.612 596.743 426.612 596.586C426.612 596.429 426.643 596.274 426.703 596.13C426.763 595.985 426.851 595.853 426.962 595.743C427.073 595.632 427.205 595.545 427.349 595.485C427.494 595.425 427.649 595.395 427.806 595.395L699.556 595.088C699.872 595.088 700.175 595.213 700.398 595.437C700.621 595.66 700.747 595.963 700.747 596.279C700.747 596.594 700.621 596.897 700.398 597.121C700.175 597.344 699.872 597.469 699.556 597.469Z" fill="#E8D1A7"/>
<path d="M577.621 105.743C568.305 90.0173 547.226 85.3762 547.226 85.3762C547.226 85.3762 525.302 85.5169 513.781 109.467C511.218 140.868 511.95 160.944 520.051 157.103L520.051 152.954L522.136 157.103C525.436 157.34 528.746 157.397 532.051 157.272C556.869 156.472 583.042 157.932 582.281 149.035C575.058 137.863 586.585 120.874 577.621 105.743Z" fill="#432E2C"/>
<path d="M534.36 251.7L536.757 275.64L592.273 269.655L593.471 251.7H534.36Z" fill="#FFB4B4"/>
<path d="M528.369 264.867L526.772 278.832C526.772 278.832 508.399 304.367 509.997 348.257C511.595 392.146 484.835 587.253 504.006 588.849C523.177 590.445 557.525 592.839 559.123 586.854C560.721 580.87 563.916 353.842 563.916 353.842C563.916 353.842 572.303 587.138 586.682 587.936C601.06 588.734 649.387 590.33 649.387 584.345C649.387 578.36 607.051 311.15 607.051 311.15L600.261 288.807L593.471 261.276C593.471 261.276 551.135 268.458 539.553 265.665C527.97 262.872 528.369 264.867 528.369 264.867Z" fill="#2F2E41"/>
<path d="M547.54 154.346C561.658 154.346 573.102 142.913 573.102 128.81C573.102 114.707 561.658 103.275 547.54 103.275C533.423 103.275 521.979 114.707 521.979 128.81C521.979 142.913 533.423 154.346 547.54 154.346Z" fill="#FFB4B4"/>
<path d="M592.273 171.104L587.42 178.158L584.313 182.67L579.093 190.255L553.132 192.25C553.132 192.25 546.825 190.215 539.548 187.243C536.86 186.142 534.037 184.913 531.353 183.608C520.94 178.557 512.585 172.392 521.979 168.311C523.647 167.595 525.249 166.735 526.768 165.741C528.149 164.839 529.435 163.799 530.606 162.637C533.012 160.228 534.794 157.269 535.796 154.016C536.798 150.764 536.991 147.316 536.357 143.972L561.519 140.381C560.788 146.757 567.135 153.711 574.248 159.389C576.585 161.26 579.009 162.988 581.29 164.512C587.269 168.51 592.273 171.104 592.273 171.104Z" fill="#FFB4B4"/>
<path d="M557.925 178.684C557.925 178.684 533.362 174.495 527.77 165.717C527.77 165.717 503.607 168.71 505.604 181.477C507.6 194.245 527.57 264.069 527.57 264.069C527.57 264.069 577.495 254.493 595.868 261.675L607.051 172.7C607.051 172.7 603.057 163.922 595.468 166.316C587.88 168.71 584.884 166.515 584.884 166.515C584.884 166.515 576.297 178.684 557.925 178.684Z" fill="black"/>
<path d="M438.005 317.079C438.005 317.079 419.366 332.614 429.769 335.203C440.172 337.792 452.743 324.847 452.743 324.847L438.005 317.079Z" fill="#FFB4B4"/>
<path d="M585.883 320.327C585.883 320.327 571.904 329.903 577.096 336.287C582.288 342.671 600.261 330.701 600.261 328.307C600.261 325.913 585.883 320.327 585.883 320.327Z" fill="#FFB4B4"/>
<path d="M551.534 268.458L539.952 270.453L532.363 214.195C532.801 203.988 532.463 193.764 531.353 183.608C530.506 176.825 529.092 170.306 526.768 165.741C528.149 164.839 529.435 163.799 530.606 162.637C533.386 167.038 538.458 176.358 539.548 187.243C539.833 189.969 539.835 192.716 539.552 195.442C537.555 214.195 537.955 217.786 537.955 217.786L551.534 268.458Z" fill="#2F2E41"/>
<path d="M507.414 171.868C507.414 171.868 531.598 166.85 533.656 177.657C535.714 188.464 533.141 216.253 527.482 226.674C521.822 237.095 502.269 271.06 502.269 271.06C502.269 271.06 466.765 305.025 465.222 313.13C463.678 321.235 455.96 329.727 455.96 329.727L431.262 317.762L479.629 256.394L500.725 213.938C500.725 213.938 491.978 175.341 507.414 171.868Z" fill="black"/>
<path d="M598.264 170.705L607.051 172.7C607.051 172.7 615.039 207.013 611.844 225.367C608.649 243.72 608.249 250.104 608.249 250.104L605.453 302.372C605.453 302.372 606.252 335.888 600.661 330.701C591.474 326.761 583.886 323.12 583.886 323.12C583.886 323.12 585.084 308.357 589.477 304.766C589.477 304.766 594.67 277.236 591.474 265.266C588.279 253.296 598.264 170.705 598.264 170.705Z" fill="black"/>
<path d="M601.459 209.407L591.275 268.258L585.084 265.665L595.868 209.407L584.313 182.67L574.248 159.389C576.585 161.26 579.009 162.988 581.29 164.512L587.421 178.158L601.459 209.407Z" fill="#2F2E41"/>
<path d="M571.341 102.625L554.089 89.6237L527.986 96.995L522.784 119.95L530.091 114.296L539.353 111.019L544.769 108.942L540.808 114.296L548.797 105.657L562.011 113.132L572.209 119.516L571.341 102.625Z" fill="#432E2C"/>
<path d="M535.37 595.088C542.224 595.088 547.78 593.007 547.78 590.439C547.78 587.871 542.224 585.79 535.37 585.79C528.516 585.79 522.96 587.871 522.96 590.439C522.96 593.007 528.516 595.088 535.37 595.088Z" fill="#2F2E41"/>
<path d="M619.138 595.088C625.992 595.088 631.548 593.007 631.548 590.439C631.548 587.871 625.992 585.79 619.138 585.79C612.284 585.79 606.728 587.871 606.728 590.439C606.728 593.007 612.284 595.088 619.138 595.088Z" fill="#2F2E41"/>
</g>
<defs>
<clipPath id="clip0_4_2">
<rect width="700.747" height="597.777" fill="white"/>
</clipPath>
</defs>
</svg>
